<mxfile host="drawio-plugin" modified="2021-12-11T11:59:16.457Z" agent="5.0 (X11; Linux x86_64) AppleWebKit/537.36 (KHTML, like Gecko) Chrome/87.0.4280.141 Safari/537.36" etag="lm6Zg4w9C0A1Ao_x4MpW" version="14.7.4" type="embed" pages="3"><diagram id="QZciY9RuoDXIQjgG95s8" name="register"><mxGraphModel dx="1403" dy="456" grid="1" gridSize="10" guides="1" tooltips="1" connect="1" arrows="1" fold="1" page="1" pageScale="1" pageWidth="850" pageHeight="1100" math="0" shadow="0"><root><mxCell id="781fqeH9izkSVlW5KmwO-0"/><mxCell id="781fqeH9izkSVlW5KmwO-1" parent="781fqeH9izkSVlW5KmwO-0"/><mxCell id="GAPpR718emSdMTzTtGiy-5" value="first name" style="rounded=0;whiteSpace=wrap;html=1;fillColor=#fff2cc;strokeColor=#d6b656;" parent="781fqeH9izkSVlW5KmwO-1" vertex="1"><mxGeometry x="40" y="40" width="120" height="40" as="geometry"/></mxCell><mxCell id="GAPpR718emSdMTzTtGiy-7" value="last name" style="rounded=0;whiteSpace=wrap;html=1;fillColor=#fff2cc;strokeColor=#d6b656;" parent="781fqeH9izkSVlW5KmwO-1" vertex="1"><mxGeometry x="40" y="80" width="120" height="40" as="geometry"/></mxCell><mxCell id="GAPpR718emSdMTzTtGiy-8" value="Register" style="rounded=0;whiteSpace=wrap;html=1;fillColor=#e1d5e7;strokeColor=#9673a6;" parent="781fqeH9izkSVlW5KmwO-1" vertex="1"><mxGeometry x="160" y="240" width="120" height="40" as="geometry"/></mxCell><mxCell id="GAPpR718emSdMTzTtGiy-9" value="Cancel" style="rounded=0;whiteSpace=wrap;html=1;fillColor=#dae8fc;strokeColor=#6c8ebf;" parent="781fqeH9izkSVlW5KmwO-1" vertex="1"><mxGeometry x="40" y="240" width="120" height="40" as="geometry"/></mxCell><mxCell id="CqiDS2GnmX2IFIvmAgDe-0" value="password" style="rounded=0;whiteSpace=wrap;html=1;fillColor=#fff2cc;strokeColor=#d6b656;" parent="781fqeH9izkSVlW5KmwO-1" vertex="1"><mxGeometry x="40" y="160" width="120" height="40" as="geometry"/></mxCell><mxCell id="CqiDS2GnmX2IFIvmAgDe-1" value="username" style="rounded=0;whiteSpace=wrap;html=1;fillColor=#fff2cc;strokeColor=#d6b656;" parent="781fqeH9izkSVlW5KmwO-1" vertex="1"><mxGeometry x="40" y="120" width="120" height="40" as="geometry"/></mxCell></root></mxGraphModel></diagram><diagram id="8g-xlDSzGopXTCbMyOv-" name="login"><mxGraphModel dx="1403" dy="456" grid="1" gridSize="10" guides="1" tooltips="1" connect="1" arrows="1" fold="1" page="1" pageScale="1" pageWidth="850" pageHeight="1100" math="0" shadow="0"><root><mxCell id="RTGksk3s0Q4b2S-w77BZ-0"/><mxCell id="RTGksk3s0Q4b2S-w77BZ-1" parent="RTGksk3s0Q4b2S-w77BZ-0"/><mxCell id="HZYjA9fhhq8oLKRQNYdf-7" value="Sign in" style="rounded=0;whiteSpace=wrap;html=1;fillColor=#e1d5e7;strokeColor=#9673a6;" parent="RTGksk3s0Q4b2S-w77BZ-1" vertex="1"><mxGeometry x="160" y="200" width="120" height="40" as="geometry"/></mxCell><mxCell id="HZYjA9fhhq8oLKRQNYdf-8" value="Cancel" style="rounded=0;whiteSpace=wrap;html=1;fillColor=#dae8fc;strokeColor=#6c8ebf;" parent="RTGksk3s0Q4b2S-w77BZ-1" vertex="1"><mxGeometry x="40" y="200" width="120" height="40" as="geometry"/></mxCell><mxCell id="HZYjA9fhhq8oLKRQNYdf-11" value="email" style="rounded=0;whiteSpace=wrap;html=1;fillColor=#fff2cc;strokeColor=#d6b656;" parent="RTGksk3s0Q4b2S-w77BZ-1" vertex="1"><mxGeometry x="40" y="80" width="120" height="40" as="geometry"/></mxCell><mxCell id="HZYjA9fhhq8oLKRQNYdf-12" value="password" style="rounded=0;whiteSpace=wrap;html=1;fillColor=#fff2cc;strokeColor=#d6b656;" parent="RTGksk3s0Q4b2S-w77BZ-1" vertex="1"><mxGeometry x="40" y="120" width="120" height="40" as="geometry"/></mxCell><mxCell id="HZYjA9fhhq8oLKRQNYdf-14" value="logo" style="rounded=0;whiteSpace=wrap;html=1;fillColor=#f5f5f5;strokeColor=#666666;fontColor=#333333;" parent="RTGksk3s0Q4b2S-w77BZ-1" vertex="1"><mxGeometry x="40" y="40" width="120" height="40" as="geometry"/></mxCell></root></mxGraphModel></diagram><diagram id="_IsXmshSabvetO7LGwU9" name="layout"><mxGraphModel dx="1403" dy="456" grid="1" gridSize="10" guides="1" tooltips="1" connect="1" arrows="1" fold="1" page="1" pageScale="1" pageWidth="850" pageHeight="1100" math="0" shadow="0"><root><mxCell id="QDMnHG924GbtXgi1lh7O-0"/><mxCell id="QDMnHG924GbtXgi1lh7O-1" parent="QDMnHG924GbtXgi1lh7O-0"/><mxCell id="QDMnHG924GbtXgi1lh7O-2" value="" style="rounded=0;whiteSpace=wrap;html=1;" parent="QDMnHG924GbtXgi1lh7O-1" vertex="1"><mxGeometry x="40" y="40" width="520" height="40" as="geometry"/></mxCell><mxCell id="QDMnHG924GbtXgi1lh7O-3" value="" style="rounded=0;whiteSpace=wrap;html=1;" parent="QDMnHG924GbtXgi1lh7O-1" vertex="1"><mxGeometry x="40" y="80" width="160" height="200" as="geometry"/></mxCell><mxCell id="QDMnHG924GbtXgi1lh7O-4" value="" style="rounded=0;whiteSpace=wrap;html=1;" parent="QDMnHG924GbtXgi1lh7O-1" vertex="1"><mxGeometry x="200" y="80" width="360" height="200" as="geometry"/></mxCell><mxCell id="QDMnHG924GbtXgi1lh7O-5" value="navbar" style="rounded=0;whiteSpace=wrap;html=1;" parent="QDMnHG924GbtXgi1lh7O-1" vertex="1"><mxGeometry x="40" y="40" width="520" height="40" as="geometry"/></mxCell><mxCell id="QDMnHG924GbtXgi1lh7O-6" value="sidebar" style="rounded=0;whiteSpace=wrap;html=1;" parent="QDMnHG924GbtXgi1lh7O-1" vertex="1"><mxGeometry x="40" y="80" width="160" height="200" as="geometry"/></mxCell><mxCell id="QDMnHG924GbtXgi1lh7O-7" value="content" style="rounded=0;whiteSpace=wrap;html=1;" parent="QDMnHG924GbtXgi1lh7O-1" vertex="1"><mxGeometry x="200" y="80" width="360" height="200" as="geometry"/></mxCell><mxCell id="LMmUt1tjvbjSZnAY92d7-0" value="navbar" style="rounded=0;whiteSpace=wrap;html=1;" parent="QDMnHG924GbtXgi1lh7O-1" vertex="1"><mxGeometry x="40" y="320" width="520" height="40" as="geometry"/></mxCell><mxCell id="LMmUt1tjvbjSZnAY92d7-2" value="content" style="rounded=0;whiteSpace=wrap;html=1;" parent="QDMnHG924GbtXgi1lh7O-1" vertex="1"><mxGeometry x="40" y="360" width="520" height="200" as="geometry"/></mxCell><mxCell id="LMmUt1tjvbjSZnAY92d7-4" value="sidebar" style="rounded=0;whiteSpace=wrap;html=1;" parent="QDMnHG924GbtXgi1lh7O-1" vertex="1"><mxGeometry x="40" y="600" width="160" height="200" as="geometry"/></mxCell><mxCell id="LMmUt1tjvbjSZnAY92d7-5" value="content" style="rounded=0;whiteSpace=wrap;html=1;" parent="QDMnHG924GbtXgi1lh7O-1" vertex="1"><mxGeometry x="200" y="600" width="360" height="200" as="geometry"/></mxCell><mxCell id="LMmUt1tjvbjSZnAY92d7-6" value="navbar" style="rounded=0;whiteSpace=wrap;html=1;" parent="QDMnHG924GbtXgi1lh7O-1" vertex="1"><mxGeometry x="40" y="840" width="520" height="40" as="geometry"/></mxCell><mxCell id="LMmUt1tjvbjSZnAY92d7-7" value="page 1" style="rounded=0;whiteSpace=wrap;html=1;" parent="QDMnHG924GbtXgi1lh7O-1" vertex="1"><mxGeometry x="40" y="880" width="520" height="200" as="geometry"/></mxCell><mxCell id="LMmUt1tjvbjSZnAY92d7-8" value="page 2" style="rounded=0;whiteSpace=wrap;html=1;" parent="QDMnHG924GbtXgi1lh7O-1" vertex="1"><mxGeometry x="40" y="1080" width="520" height="200" as="geometry"/></mxCell></root></mxGraphModel></diagram></mxfile>